<svg id="Capa_1" enable-background="new 0 0 512 512" height="512" viewBox="0 0 512 512" width="512" xmlns="http://www.w3.org/2000/svg"><path d="m391 332c-24.15 0-46.107 9.564-62.288 25.1l-96.254-59.633c5.492-12.728 8.542-26.747 8.542-41.467s-3.05-28.739-8.543-41.466l96.254-59.633c16.182 15.535 38.139 25.099 62.289 25.099 49.626 0 90-40.374 90-90s-40.374-90-90-90-90 40.374-90 90c0 14.651 3.521 28.495 9.758 40.732l-94.001 58.238c-19.276-23.184-48.321-37.97-80.757-37.97-57.897 0-105 47.103-105 105s47.103 105 105 105c32.436 0 61.481-14.786 80.757-37.97l94.001 58.238c-6.237 12.237-9.758 26.081-9.758 40.732 0 49.626 40.374 90 90 90s90-40.374 90-90-40.374-90-90-90z"/></svg>